<mxfile host="app.diagrams.net" modified="2023-01-09T17:42:32.831Z" agent="5.0 (X11; Linux x86_64) AppleWebKit/537.36 (KHTML, like Gecko) Chrome/108.0.0.0 Safari/537.36" version="20.8.0" etag="0VBjbTnxiL9O_0duRFOt" type="github">
  <diagram id="xfaApCj7F8kk9ZBanUBG" name="Page-1">
    <mxGraphModel dx="1362" dy="806" grid="1" gridSize="10" guides="1" tooltips="1" connect="1" arrows="1" fold="1" page="1" pageScale="1" pageWidth="827" pageHeight="1169" math="0" shadow="0">
      <root>
        <mxCell id="0" />
        <mxCell id="1" parent="0" />
        <mxCell id="TME0GkFgZYvYJlxy5RAf-9" style="edgeStyle=orthogonalEdgeStyle;orthogonalLoop=1;jettySize=auto;html=1;entryX=0.5;entryY=0;entryDx=0;entryDy=0;entryPerimeter=0;fontSize=20;rounded=1;" edge="1" parent="1" source="TME0GkFgZYvYJlxy5RAf-5" target="TME0GkFgZYvYJlxy5RAf-6">
          <mxGeometry relative="1" as="geometry">
            <Array as="points">
              <mxPoint x="570" y="110" />
              <mxPoint x="270" y="110" />
            </Array>
          </mxGeometry>
        </mxCell>
        <mxCell id="TME0GkFgZYvYJlxy5RAf-15" value="Fork" style="edgeLabel;html=1;align=center;verticalAlign=middle;resizable=0;points=[];fontSize=20;" vertex="1" connectable="0" parent="TME0GkFgZYvYJlxy5RAf-9">
          <mxGeometry x="-0.05" y="-1" relative="1" as="geometry">
            <mxPoint x="-16" y="-19" as="offset" />
          </mxGeometry>
        </mxCell>
        <mxCell id="TME0GkFgZYvYJlxy5RAf-12" style="edgeStyle=orthogonalEdgeStyle;rounded=1;orthogonalLoop=1;jettySize=auto;html=1;fontSize=20;entryX=1;entryY=0.5;entryDx=0;entryDy=0;entryPerimeter=0;" edge="1" parent="1" source="TME0GkFgZYvYJlxy5RAf-5" target="TME0GkFgZYvYJlxy5RAf-8">
          <mxGeometry relative="1" as="geometry">
            <mxPoint x="360" y="460" as="targetPoint" />
            <Array as="points">
              <mxPoint x="570" y="455" />
            </Array>
          </mxGeometry>
        </mxCell>
        <mxCell id="TME0GkFgZYvYJlxy5RAf-16" value="Pull upstream" style="edgeLabel;html=1;align=center;verticalAlign=middle;resizable=0;points=[];fontSize=20;" vertex="1" connectable="0" parent="TME0GkFgZYvYJlxy5RAf-12">
          <mxGeometry x="0.3114" y="-1" relative="1" as="geometry">
            <mxPoint x="-16" y="16" as="offset" />
          </mxGeometry>
        </mxCell>
        <mxCell id="TME0GkFgZYvYJlxy5RAf-5" value="&lt;font style=&quot;&quot;&gt;&lt;b style=&quot;font-size: 20px;&quot;&gt;UPSTREAM&lt;/b&gt;&lt;br&gt;&lt;font style=&quot;font-size: 18px;&quot;&gt;main/devel/...&lt;/font&gt;&lt;br&gt;&lt;/font&gt;" style="shape=cylinder3;whiteSpace=wrap;html=1;boundedLbl=1;backgroundOutline=1;size=15;fillColor=#ffe6cc;strokeColor=#d79b00;" vertex="1" parent="1">
          <mxGeometry x="500" y="160" width="140" height="130" as="geometry" />
        </mxCell>
        <mxCell id="TME0GkFgZYvYJlxy5RAf-10" style="edgeStyle=orthogonalEdgeStyle;rounded=1;orthogonalLoop=1;jettySize=auto;html=1;entryX=0.145;entryY=0;entryDx=0;entryDy=4.35;entryPerimeter=0;fontSize=20;exitX=0.145;exitY=1;exitDx=0;exitDy=-4.35;exitPerimeter=0;" edge="1" parent="1" source="TME0GkFgZYvYJlxy5RAf-6" target="TME0GkFgZYvYJlxy5RAf-8">
          <mxGeometry relative="1" as="geometry" />
        </mxCell>
        <mxCell id="TME0GkFgZYvYJlxy5RAf-20" value="Pull" style="edgeLabel;html=1;align=center;verticalAlign=middle;resizable=0;points=[];fontSize=20;" vertex="1" connectable="0" parent="TME0GkFgZYvYJlxy5RAf-10">
          <mxGeometry x="-0.184" y="3" relative="1" as="geometry">
            <mxPoint x="-23" y="10" as="offset" />
          </mxGeometry>
        </mxCell>
        <mxCell id="TME0GkFgZYvYJlxy5RAf-13" style="edgeStyle=orthogonalEdgeStyle;rounded=1;orthogonalLoop=1;jettySize=auto;html=1;entryX=0;entryY=0.5;entryDx=0;entryDy=0;entryPerimeter=0;fontSize=20;" edge="1" parent="1" source="TME0GkFgZYvYJlxy5RAf-6" target="TME0GkFgZYvYJlxy5RAf-5">
          <mxGeometry relative="1" as="geometry" />
        </mxCell>
        <mxCell id="TME0GkFgZYvYJlxy5RAf-14" value="Pull-Request" style="edgeLabel;html=1;align=center;verticalAlign=middle;resizable=0;points=[];fontSize=20;" vertex="1" connectable="0" parent="TME0GkFgZYvYJlxy5RAf-13">
          <mxGeometry x="-0.175" relative="1" as="geometry">
            <mxPoint x="14" y="-15" as="offset" />
          </mxGeometry>
        </mxCell>
        <mxCell id="TME0GkFgZYvYJlxy5RAf-6" value="&lt;font style=&quot;&quot;&gt;&lt;b style=&quot;font-size: 20px;&quot;&gt;ORIGIN&lt;/b&gt;&lt;br&gt;&lt;font style=&quot;font-size: 18px;&quot;&gt;main/devel/...&lt;/font&gt;&lt;br&gt;&lt;/font&gt;" style="shape=cylinder3;whiteSpace=wrap;html=1;boundedLbl=1;backgroundOutline=1;size=15;fillColor=#d5e8d4;strokeColor=#82b366;" vertex="1" parent="1">
          <mxGeometry x="200" y="160" width="140" height="130" as="geometry" />
        </mxCell>
        <mxCell id="TME0GkFgZYvYJlxy5RAf-11" style="edgeStyle=orthogonalEdgeStyle;rounded=1;orthogonalLoop=1;jettySize=auto;html=1;entryX=0.855;entryY=1;entryDx=0;entryDy=-4.35;entryPerimeter=0;fontSize=20;exitX=0.855;exitY=0;exitDx=0;exitDy=4.35;exitPerimeter=0;" edge="1" parent="1" source="TME0GkFgZYvYJlxy5RAf-8" target="TME0GkFgZYvYJlxy5RAf-6">
          <mxGeometry relative="1" as="geometry">
            <mxPoint x="320" y="390" as="sourcePoint" />
          </mxGeometry>
        </mxCell>
        <mxCell id="TME0GkFgZYvYJlxy5RAf-19" value="Push" style="edgeLabel;html=1;align=center;verticalAlign=middle;resizable=0;points=[];fontSize=20;" vertex="1" connectable="0" parent="TME0GkFgZYvYJlxy5RAf-11">
          <mxGeometry x="-0.2024" y="2" relative="1" as="geometry">
            <mxPoint x="32" y="-11" as="offset" />
          </mxGeometry>
        </mxCell>
        <mxCell id="TME0GkFgZYvYJlxy5RAf-8" value="&lt;font style=&quot;font-size: 20px;&quot;&gt;&lt;b&gt;LOCAL&lt;/b&gt;&lt;/font&gt;" style="shape=cylinder3;whiteSpace=wrap;html=1;boundedLbl=1;backgroundOutline=1;size=15;fillColor=#dae8fc;strokeColor=#6c8ebf;" vertex="1" parent="1">
          <mxGeometry x="200" y="390" width="140" height="130" as="geometry" />
        </mxCell>
      </root>
    </mxGraphModel>
  </diagram>
</mxfile>
